<svg xmlns="http://www.w3.org/2000/svg" width="806.939" height="637.616" viewBox="0 0 806.939 637.616">
  <g id="Group_3" data-name="Group 3" transform="translate(-629.061 -2353.384)">
    <path id="Rectangle" d="M82,98.542,685.895,3.631A20,20,0,0,1,709,23.389V519a20,20,0,0,1-20,20H24.067A20,20,0,0,1,4.4,515.339Z" transform="translate(676 2401)" fill="#ff865b" opacity="0.298"/>
    <path id="Rectangle-2" data-name="Rectangle" d="M82,96.165,685.968,3.532A20,20,0,0,1,709,23.3V506a20,20,0,0,1-20,20H24.176A20,20,0,0,1,4.53,502.252Z" transform="translate(639 2394)" fill="#ff865b"/>
    <g id="Group_6" data-name="Group 6" transform="translate(761 2547)">
      <text id="There_is_no_denying" data-name="There is no denying" transform="translate(0 46)" fill="#fff" font-size="18" font-family="Helvetica"><tspan x="0" y="14">There is no denying the fact that the success of an advertisement </tspan><tspan x="0" y="45">lies mostly in the headline. The headline should attract the reader </tspan><tspan x="0" y="76">and make him read the rest of the advertisement. The headline </tspan><tspan x="0" y="107">should be simply catchy and various key points should be </tspan><tspan x="0" y="138">embedded when deciding on the headline for the ad. The headline </tspan><tspan x="0" y="169">should catch attention of the eye at the first glance. Words in </tspan><tspan x="0" y="200">headlines should act as tags for the advertisement. It should say it </tspan><tspan x="0" y="231">all about the content that follows. If a company is selling reasonably </tspan></text>
      <text id="What_If_They_Let_You" data-name="What If They Let You" fill="#fff" font-size="26" font-family="Helvetica"><tspan x="0" y="20">What If They Let You Run The Hubble</tspan></text>
    </g>
  </g>
</svg>
