<svg xmlns="http://www.w3.org/2000/svg" width="802.579" height="433.016" viewBox="0 0 802.579 433.016">
  <g id="Group_2" data-name="Group 2" transform="translate(-68.285 -1579)">
    <path id="Rectangle" d="M.034,21.034A21,21,0,0,1,21.034,0H643.609a21,21,0,0,1,20.767,24.121L635.626,215.44,23.3,270.929a21,21,0,0,1-22.9-20.88Z" transform="translate(137.251 1672)" fill="rgba(119,150,254,0.97)" opacity="0.502"/>
    <path id="Rectangle_Copy_2" data-name="Rectangle Copy 2" d="M.029,21.029A21,21,0,0,1,21.029,0H728.117a21,21,0,0,1,20.827,23.687L715.555,282.518,23.672,355.554A21,21,0,0,1,.467,334.7Z" transform="translate(95 1579)" fill="#7796fe"/>
    <g id="Group_6" data-name="Group 6" transform="translate(151 1628)">
      <text id="Filium_morte_multavi" data-name="Filium morte multavi" transform="translate(0 46)" fill="#fff" font-size="18" font-family="Helvetica"><tspan x="0" y="14">Filium morte multavit si sine dubio praeclara sunt, explicabo nemo </tspan><tspan x="0" y="45">enim ad minima. Probabo, inquit, modo ista sis aequitate, quam ob </tspan><tspan x="0" y="76">rem aperiam eaque gaudere ut. t vero eos et caritatem, quae ab eo </tspan><tspan x="0" y="107">ortum, tam crudelis fuisse, nihil. Et quidem rerum necessitatibus saepe </tspan><tspan x="0" y="138">eveniet</tspan></text>
      <text id="The_Amazing_Hubble" data-name="The Amazing Hubble" transform="translate(0 20)" fill="#fff" font-size="26" font-family="Helvetica"><tspan x="0" y="0">The Amazing Hubble</tspan></text>
    </g>
  </g>
</svg>
