<svg xmlns="http://www.w3.org/2000/svg" width="831.006" height="570.453" viewBox="0 0 831.006 570.453">
  <g id="Group_4" data-name="Group 4" transform="translate(9.247 -3529.977)">
    <path id="Rectangle_Copy_3" data-name="Rectangle Copy 3" d="M30.366-21.085A21,21,0,0,0,52.937-1.634L687.38-50.824a21,21,0,0,0,19.251-23.231L674.617-365.4,25.337-445.86a21,21,0,0,0-23.53,22.327Z" transform="translate(52 4039)" fill="#8937dc" opacity="0.388"/>
    <path id="Rectangle_Copy_3-2" data-name="Rectangle Copy 3" d="M30.366-21.085A21,21,0,0,0,52.937-1.634L687.38-50.824a21,21,0,0,0,19.251-23.231L674.617-365.4,25.337-445.86a21,21,0,0,0-23.53,22.327Z" transform="translate(83 4027)" fill="#8937dc"/>
    <g id="Group_6" data-name="Group 6" transform="translate(162 3677)">
      <text id="There_is_no_denying" data-name="There is no denying" transform="translate(0 46)" fill="#fff" font-size="18" font-family="Helvetica"><tspan x="0" y="14">There is no denying the fact that the success of an </tspan><tspan x="0" y="45">advertisement lies mostly in the headline. The headline </tspan><tspan x="0" y="76">should attract the reader and make him read the rest of the </tspan><tspan x="0" y="107">advertisement. The headline should be simply catchy and </tspan><tspan x="0" y="138">various key points should be embedded when deciding on </tspan><tspan x="0" y="169">the headline for the ad. The headline should catch attention </tspan><tspan x="0" y="200">of the eye at the first glance. Words in headlines should act </tspan></text>
      <text id="Ordering_Contact_Len" data-name="Ordering Contact Len" fill="#fff" font-size="26" font-family="Helvetica"><tspan x="0" y="20">Ordering Contact Lens Online</tspan></text>
    </g>
  </g>
</svg>
